<?xml version="1.0"?>
<svg xmlns="http://www.w3.org/2000/svg" xmlns:xlink="http://www.w3.org/1999/xlink" version="1.1" id="Capa_1" x="0px" y="0px" viewBox="0 0 511.997 511.997" style="enable-background:new 0 0 511.997 511.997;" xml:space="preserve" width="512px" height="512px" class=""><g><g>
	<g>
		<path d="M320.207,217.274c-10.21,0-19.725,3.006-27.731,8.163h-67.064c-0.806,0-1.582,0.127-2.311,0.36    c-8.119-5.379-17.843-8.523-28.29-8.523c-4.208,0-7.619,3.41-7.619,7.619s3.411,7.619,7.619,7.619    c19.919,0,36.126,16.206,36.126,36.126s-16.206,36.126-36.126,36.126c-19.92,0-36.126-16.206-36.126-36.126    c0-11.624,5.652-22.613,15.117-29.393c3.422-2.45,4.208-7.211,1.758-10.632c-2.45-3.422-7.21-4.208-10.631-1.758    c-13.452,9.634-21.483,25.254-21.483,41.782c0,28.323,23.042,51.365,51.365,51.365s51.365-23.042,51.365-51.365    c0-10.309-3.064-19.91-8.312-27.962h39.291c-5.248,8.053-8.312,17.654-8.312,27.962c0,28.323,23.042,51.365,51.365,51.365    s51.365-23.042,51.365-51.365S348.53,217.274,320.207,217.274z M320.207,304.766c-19.919,0-36.126-16.206-36.126-36.126    c0-19.92,16.206-36.126,36.126-36.126c19.92,0.001,36.126,16.207,36.126,36.126S340.127,304.766,320.207,304.766z" data-original="#000000" class="active-path" data-old_color="#000000" fill="#6A4DB5"/>
	</g>
</g><g>
	<g>
		<path d="M303.071,349.902h-87.49c-4.208,0-7.619,3.41-7.619,7.619c0,28.323,23.042,51.366,51.365,51.366    s51.365-23.043,51.365-51.366C310.69,353.314,307.279,349.902,303.071,349.902z M259.325,393.649    c-17.307,0-31.811-12.233-35.317-28.508h70.634C291.136,381.416,276.632,393.649,259.325,393.649z" data-original="#000000" class="active-path" data-old_color="#000000" fill="#6A4DB5"/>
	</g>
</g><g>
	<g>
		<path d="M298.381,48.889c-0.873-2.688-3.163-4.672-5.948-5.154l-18.138-3.136l-8.589-16.282c-1.319-2.5-3.913-4.065-6.74-4.065    c-2.827,0-5.421,1.565-6.74,4.065l-8.589,16.282l-18.138,3.136c-2.786,0.483-5.076,2.466-5.948,5.154    c-0.874,2.688-0.187,5.639,1.783,7.665l12.831,13.199l-2.623,18.22c-0.402,2.798,0.776,5.589,3.063,7.25    c1.326,0.963,2.898,1.456,4.48,1.456c1.145,0,2.296-0.258,3.362-0.782l16.519-8.124l16.518,8.124    c2.536,1.247,5.555,0.987,7.842-0.674c2.286-1.661,3.465-4.452,3.063-7.25l-2.622-18.22l12.831-13.198    C298.568,54.529,299.255,51.578,298.381,48.889z M270.228,61.818c-1.648,1.696-2.415,4.058-2.079,6.397l1.098,7.632l-6.918-3.403    c-2.12-1.04-4.605-1.042-6.725,0l-6.918,3.403l1.098-7.632c0.337-2.34-0.431-4.702-2.079-6.396l-5.374-5.528l7.597-1.314    c2.328-0.402,4.339-1.863,5.441-3.954l3.597-6.82l3.597,6.82c1.102,2.091,3.113,3.551,5.441,3.954l7.597,1.314L270.228,61.818z" data-original="#000000" class="active-path" data-old_color="#000000" fill="#6A4DB5"/>
	</g>
</g><g>
	<g>
		<path d="M491.543,261.578c0-33.598-27.325-60.934-60.919-60.953l-0.062-18.932c0.358-0.937,0.515-1.925,0.49-2.906V139.29    c0-50.538-32.008-95.826-79.647-112.695l-55.81-19.762c-25.731-9.11-54.074-9.11-79.807,0L174.12,21.586    c-3.967,1.405-6.044,5.759-4.639,9.726c1.405,3.965,5.759,6.045,9.725,4.639l41.667-14.754c22.454-7.95,47.183-7.95,69.634,0    l55.811,19.762c41.567,14.718,69.495,54.234,69.495,98.329v22.218c-24.581-21.289-52.79-37.176-84.104-47.281    c-35.233-11.369-73.321-14.679-110.154-9.577c-14.632,2.028-29.138,5.384-43.113,9.975c-30.827,10.127-58.623,25.88-82.875,46.882    v-22.218c0-29.459,12.545-57.683,34.415-77.436c3.123-2.82,3.368-7.64,0.548-10.763c-2.82-3.121-7.639-3.366-10.762-0.548    c-25.065,22.638-39.441,54.985-39.441,88.746v39.682c0,0.05,0.006,0.098,0.007,0.146c0.003,0.144,0.011,0.287,0.021,0.432    c0.008,0.106,0.015,0.21,0.027,0.314c0.016,0.135,0.039,0.269,0.062,0.403c0.018,0.108,0.035,0.216,0.058,0.323    c0.027,0.125,0.062,0.248,0.096,0.372c0.029,0.111,0.057,0.222,0.091,0.331c0.038,0.117,0.083,0.231,0.127,0.346l-0.062,19.002    c-33.309,0.354-60.3,27.547-60.3,60.938c0,33.258,26.777,60.362,59.902,60.928l-0.028,8.737    c-0.342,5.763-3.682,79.755,45.013,131.78c30.383,32.463,74.175,48.938,130.16,48.975c0.012,0,0.023,0.002,0.035,0.002    c0.026,0,0.052-0.001,0.078-0.001s0.052,0.001,0.078,0.001c0.012,0,0.023-0.002,0.035-0.002    c55.984-0.038,99.777-16.513,130.16-48.975c46.343-49.513,45.557-118.919,45.077-130.478c0.051-0.359,0.084-0.72,0.083-1.086    l-0.029-8.938C464.433,322.285,491.543,295.044,491.543,261.578z M80.411,307.274c-24.746-0.537-44.714-20.824-44.714-45.696    c0-24.852,19.937-45.127,44.657-45.694l0.202,46.847L80.411,307.274z M415.788,323.865h-10.91l-0.47-109.358    c2.718-1.741,5.129-3.966,7.076-6.592l3.908-5.275L415.788,323.865z M183.199,129.102c13.109-4.307,26.718-7.456,40.448-9.359    c69.183-9.588,139.585,12.813,189.703,60.056l-14.111,19.042c-1.899,2.562-4.687,4.193-7.852,4.59    c-3.089,0.388-6.104-0.469-8.491-2.413c-35.463-28.867-80.274-44.764-126.177-44.764c-45.904,0-90.715,15.897-126.177,44.764    c-2.387,1.944-5.401,2.806-8.491,2.413c-3.165-0.397-5.952-2.027-7.852-4.591c-0.078-0.106-0.159-0.209-0.244-0.311L98.297,179.54    C122.67,156.568,151.199,139.615,183.199,129.102z M95.997,200.704l6.087,7.382c1.283,1.703,2.765,3.23,4.397,4.567l0.251,58.334    l-0.228,52.878H96.058l-0.035-7.989c0.04-0.316,0.067-0.635,0.067-0.961V208.243c0-0.433-0.045-0.853-0.114-1.267L95.997,200.704z     M374.765,452.61c-27.407,29.282-67.495,44.136-119.148,44.151c-51.599-0.015-91.656-14.839-119.062-44.06    c-36.758-39.194-40.865-94.186-41.102-113.596h13.921c5.487,10.408,20.162,34.363,40.259,37.185    c1.339,0.188,2.666,0.28,3.982,0.28c9.343,0,18.124-4.724,26.147-14.086c0.868-1.011,1.76-2.004,2.652-2.949    c2.887-3.062,2.746-7.885-0.316-10.772c-3.063-2.887-7.884-2.744-10.771,0.317c-1.056,1.12-2.109,2.291-3.133,3.486    c-8.365,9.758-14.436,8.913-16.432,8.634c-12.388-1.726-24.68-21.005-29.536-30.422l-0.257-59.781l0.226-52.27    c6.536,0.331,12.852-1.723,17.968-5.888c67.537-54.975,165.576-54.976,233.114,0c4.576,3.725,10.113,5.744,15.91,5.898    l0.476,110.734c-4.315,8.805-17.199,29.918-30.191,31.728c-1.994,0.281-8.065,1.125-16.431-8.634    c-32.874-38.353-79.206-34.927-87.43-33.978c-5.82-0.662-31.105-2.562-57.152,10.37c-3.769,1.872-5.307,6.444-3.436,10.213    c1.331,2.681,4.027,4.233,6.83,4.233c1.138,0,2.294-0.256,3.383-0.797c23.018-11.429,45.929-9.201,48.993-8.836    c0.342,0.061,0.692,0.099,1.045,0.112c0.637,0.036,1.261-0.014,1.865-0.131c5.116-0.638,45.828-4.522,74.332,28.732    c8.026,9.364,16.805,14.089,26.149,14.088c1.317,0,2.644-0.093,3.982-0.28c20.098-2.82,34.773-26.777,40.259-37.185h13.933    C415.587,358.474,411.547,413.313,374.765,452.61z M431.15,307.29v-91.425c24.95,0.303,45.155,20.692,45.155,45.712    C476.304,286.598,456.1,306.988,431.15,307.29z" data-original="#000000" class="active-path" data-old_color="#000000" fill="#6A4DB5"/>
	</g>
</g><g>
	<g>
		<path d="M194.811,250.396c-4.208,0-7.619,3.41-7.619,7.619v20.828c0,4.209,3.411,7.619,7.619,7.619s7.619-3.41,7.619-7.619    v-20.828C202.431,253.805,199.019,250.396,194.811,250.396z" data-original="#000000" class="active-path" data-old_color="#000000" fill="#6A4DB5"/>
	</g>
</g><g>
	<g>
		<path d="M320.207,250.396c-4.208,0-7.619,3.41-7.619,7.619v20.828c0,4.209,3.411,7.619,7.619,7.619    c4.208,0,7.619-3.41,7.619-7.619v-20.828C327.827,253.805,324.415,250.396,320.207,250.396z" data-original="#000000" class="active-path" data-old_color="#000000" fill="#6A4DB5"/>
	</g>
</g></g> </svg>
