<?xml version="1.0" encoding="UTF-8" standalone="no"?>
<!DOCTYPE svg PUBLIC "-//W3C//DTD SVG 1.1//EN" "http://www.w3.org/Graphics/SVG/1.1/DTD/svg11.dtd">
<svg version="1.1" xmlns="http://www.w3.org/2000/svg" xmlns:xlink="http://www.w3.org/1999/xlink" preserveAspectRatio="xMidYMid meet" viewBox="56.63470984363411 48.557240330808995 304 426" width="300" height="422"><defs><path d="M57.63 49.56L357.63 49.56L357.63 471.56L57.63 471.56L57.63 49.56Z" id="b7UqS9ArlC"></path><radialGradient id="gradienta1JQ81vjNy" gradientUnits="userSpaceOnUse" cx="207.63" cy="260.56" r="322.64"><stop style="stop-color: #5c6875;stop-opacity: 1" offset="0%"></stop><stop style="stop-color: #c6c5c5;stop-opacity: 1" offset="0%"></stop><stop style="stop-color: #292b36;stop-opacity: 1" offset="100%"></stop></radialGradient><path d="M264.49 226.35L264.85 226.47L265.19 226.64L265.49 226.85L265.77 227.09L266.02 227.37L266.23 227.68L266.39 228.01L266.52 228.37L266.59 228.75L266.62 229.14L266.62 241.55L266.59 241.94L266.52 242.32L266.39 242.67L266.23 243.01L266.02 243.32L265.77 243.6L265.49 243.84L265.19 244.05L264.85 244.22L264.49 244.34L264.12 244.42L263.72 244.44L254.6 244.44L254.21 244.42L253.83 244.34L253.47 244.22L253.14 244.05L252.83 243.84L252.55 243.6L252.31 243.32L252.1 243.01L251.93 242.67L251.81 242.32L251.73 241.94L251.7 241.55L251.7 229.14L251.73 228.75L251.81 228.37L251.93 228.01L252.1 227.68L252.31 227.37L252.55 227.09L252.83 226.85L253.14 226.64L253.47 226.47L253.83 226.35L254.21 226.27L254.6 226.24L263.72 226.24L264.12 226.27L264.49 226.35ZM257.5 238.65L260.83 238.65L260.83 232.04L257.5 232.04L257.5 238.65Z" id="a4u95F93ir"></path><path d="M264.49 175.92L264.85 176.05L265.19 176.21L265.49 176.42L265.77 176.67L266.02 176.94L266.23 177.25L266.39 177.59L266.52 177.94L266.59 178.32L266.62 178.72L266.62 191.12L266.59 191.51L266.52 191.89L266.39 192.25L266.23 192.58L266.02 192.89L265.77 193.17L265.49 193.41L265.19 193.62L264.85 193.79L264.49 193.91L264.12 193.99L263.72 194.02L254.6 194.02L254.21 193.99L253.83 193.91L253.47 193.79L253.14 193.62L252.83 193.41L252.55 193.17L252.31 192.89L252.1 192.58L251.93 192.25L251.81 191.89L251.73 191.51L251.7 191.12L251.7 178.72L251.73 178.32L251.81 177.94L251.93 177.59L252.1 177.25L252.31 176.94L252.55 176.67L252.83 176.42L253.14 176.21L253.47 176.05L253.83 175.92L254.21 175.84L254.6 175.82L263.72 175.82L264.12 175.84L264.49 175.92ZM257.5 188.22L260.83 188.22L260.83 181.61L257.5 181.61L257.5 188.22Z" id="aGyi418kA"></path><path d="M264.49 201.13L264.85 201.26L265.19 201.43L265.49 201.63L265.77 201.88L266.02 202.16L266.23 202.47L266.39 202.8L266.52 203.16L266.59 203.54L266.62 203.93L266.62 216.33L266.59 216.73L266.52 217.1L266.39 217.46L266.23 217.8L266.02 218.1L265.77 218.38L265.49 218.63L265.19 218.84L264.85 219L264.49 219.13L264.12 219.2L263.72 219.23L254.6 219.23L254.21 219.2L253.83 219.13L253.47 219L253.14 218.84L252.83 218.63L252.55 218.38L252.31 218.1L252.1 217.8L251.93 217.46L251.81 217.1L251.73 216.73L251.7 216.33L251.7 203.93L251.73 203.54L251.81 203.16L251.93 202.8L252.1 202.47L252.31 202.16L252.55 201.88L252.83 201.63L253.14 201.43L253.47 201.26L253.83 201.13L254.21 201.06L254.6 201.03L263.72 201.03L264.12 201.06L264.49 201.13ZM257.5 213.44L260.83 213.44L260.83 206.83L257.5 206.83L257.5 213.44Z" id="cvmiyfFHw"></path><path d="M264.49 301.99L264.85 302.11L265.19 302.28L265.49 302.49L265.77 302.73L266.02 303.01L266.23 303.32L266.39 303.65L266.52 304.01L266.59 304.39L266.62 304.78L266.62 317.19L266.59 317.58L266.52 317.96L266.39 318.31L266.23 318.65L266.02 318.96L265.77 319.24L265.49 319.48L265.19 319.69L264.85 319.86L264.49 319.98L264.12 320.06L263.72 320.08L254.6 320.08L254.21 320.06L253.83 319.98L253.47 319.86L253.14 319.69L252.83 319.48L252.55 319.24L252.31 318.96L252.1 318.65L251.93 318.31L251.81 317.96L251.73 317.58L251.7 317.19L251.7 304.78L251.73 304.39L251.81 304.01L251.93 303.65L252.1 303.32L252.31 303.01L252.55 302.73L252.83 302.49L253.14 302.28L253.47 302.11L253.83 301.99L254.21 301.91L254.6 301.88L263.72 301.88L264.12 301.91L264.49 301.99ZM257.5 314.29L260.83 314.29L260.83 307.68L257.5 307.68L257.5 314.29Z" id="a4tvJAX35"></path><path d="M264.49 276.77L264.85 276.9L265.19 277.07L265.49 277.27L265.77 277.52L266.02 277.8L266.23 278.11L266.39 278.44L266.52 278.8L266.59 279.17L266.62 279.57L266.62 291.97L266.59 292.37L266.52 292.74L266.39 293.1L266.23 293.44L266.02 293.74L265.77 294.02L265.49 294.27L265.19 294.48L264.85 294.64L264.49 294.77L264.12 294.84L263.72 294.87L254.6 294.87L254.21 294.84L253.83 294.77L253.47 294.64L253.14 294.47L252.83 294.27L252.55 294.02L252.31 293.74L252.1 293.44L251.93 293.1L251.81 292.74L251.73 292.37L251.7 291.97L251.7 279.57L251.73 279.17L251.81 278.8L251.93 278.44L252.1 278.11L252.31 277.8L252.55 277.52L252.83 277.27L253.14 277.07L253.47 276.9L253.83 276.77L254.21 276.7L254.6 276.67L263.72 276.67L264.12 276.7L264.49 276.77ZM257.5 289.08L260.83 289.08L260.83 282.47L257.5 282.47L257.5 289.08Z" id="c3jUY12UOL"></path><path d="M161.82 276.77L162.18 276.9L162.52 277.07L162.82 277.27L163.1 277.52L163.35 277.8L163.55 278.11L163.72 278.44L163.85 278.8L163.92 279.17L163.95 279.57L163.95 291.97L163.92 292.37L163.85 292.74L163.72 293.1L163.55 293.44L163.35 293.74L163.1 294.02L162.82 294.27L162.52 294.47L162.18 294.64L161.82 294.77L161.45 294.84L161.05 294.87L151.55 294.87L151.15 294.84L150.78 294.77L150.42 294.64L150.08 294.47L149.78 294.27L149.5 294.02L149.25 293.74L149.04 293.44L148.88 293.1L148.75 292.74L148.68 292.37L148.65 291.97L148.65 279.57L148.68 279.17L148.75 278.8L148.88 278.44L149.04 278.11L149.25 277.8L149.5 277.52L149.78 277.27L150.08 277.07L150.42 276.9L150.78 276.77L151.15 276.7L151.55 276.67L161.05 276.67L161.45 276.7L161.82 276.77ZM154.44 289.08L158.16 289.08L158.16 282.47L154.44 282.47L154.44 289.08Z" id="bpNAr21AQ"></path><path d="M161.82 201.13L162.18 201.26L162.52 201.43L162.82 201.63L163.1 201.88L163.35 202.16L163.55 202.47L163.72 202.8L163.85 203.16L163.92 203.53L163.95 203.93L163.95 216.33L163.92 216.73L163.85 217.1L163.72 217.46L163.55 217.8L163.35 218.1L163.1 218.38L162.82 218.63L162.52 218.83L162.18 219L161.82 219.13L161.45 219.2L161.05 219.23L151.55 219.23L151.15 219.2L150.78 219.13L150.42 219L150.08 218.83L149.78 218.63L149.5 218.38L149.25 218.1L149.04 217.8L148.88 217.46L148.75 217.1L148.68 216.73L148.65 216.33L148.65 203.93L148.68 203.53L148.75 203.16L148.88 202.8L149.04 202.47L149.25 202.16L149.5 201.88L149.78 201.63L150.08 201.43L150.42 201.26L150.78 201.13L151.15 201.06L151.55 201.03L161.05 201.03L161.45 201.06L161.82 201.13ZM154.44 213.44L158.16 213.44L158.16 206.83L154.44 206.83L154.44 213.44Z" id="df4S0XKBS"></path><path d="M161.82 226.35L162.18 226.47L162.52 226.64L162.82 226.85L163.1 227.09L163.35 227.37L163.55 227.68L163.72 228.01L163.85 228.37L163.92 228.75L163.95 229.14L163.95 241.55L163.92 241.94L163.85 242.32L163.72 242.67L163.55 243.01L163.35 243.32L163.1 243.6L162.82 243.84L162.52 244.05L162.18 244.22L161.82 244.34L161.45 244.42L161.05 244.44L151.55 244.44L151.15 244.42L150.78 244.34L150.42 244.22L150.08 244.05L149.78 243.84L149.5 243.6L149.25 243.32L149.04 243.01L148.88 242.67L148.75 242.32L148.68 241.94L148.65 241.55L148.65 229.14L148.68 228.75L148.75 228.37L148.88 228.01L149.04 227.68L149.25 227.37L149.5 227.09L149.78 226.85L150.08 226.64L150.42 226.47L150.78 226.35L151.15 226.27L151.55 226.24L161.05 226.24L161.45 226.27L161.82 226.35ZM154.44 238.65L158.16 238.65L158.16 232.04L154.44 232.04L154.44 238.65Z" id="c5safZpLv"></path><path d="M275.9 163.01L276.02 163.02L276.14 163.03L276.25 163.05L276.37 163.07L276.48 163.09L276.59 163.12L276.7 163.16L276.81 163.19L276.91 163.24L277.01 163.28L277.12 163.33L277.21 163.39L277.31 163.44L277.4 163.5L277.5 163.57L277.58 163.64L277.67 163.71L277.75 163.78L277.83 163.86L277.91 163.94L277.98 164.02L278.05 164.11L278.12 164.2L278.19 164.29L278.25 164.38L278.3 164.48L278.36 164.58L278.41 164.68L278.45 164.78L278.5 164.88L278.53 164.99L278.57 165.1L278.6 165.21L278.62 165.32L278.64 165.44L278.66 165.55L278.67 165.67L278.68 165.79L278.68 165.91L278.68 166.03L278.67 166.14L278.66 166.26L278.64 166.38L278.62 166.49L278.6 166.6L278.57 166.71L278.53 166.82L278.5 166.93L278.45 167.03L278.41 167.14L278.36 167.24L278.3 167.34L278.25 167.43L278.19 167.53L278.12 167.62L278.05 167.71L277.98 167.79L277.91 167.88L277.83 167.96L277.75 168.03L277.67 168.11L277.58 168.18L277.5 168.25L277.4 168.31L277.31 168.37L277.21 168.43L277.12 168.48L277.01 168.53L276.91 168.58L276.81 168.62L276.7 168.66L276.59 168.69L276.48 168.72L276.37 168.75L276.25 168.77L276.14 168.78L276.02 168.79L275.9 168.8L275.78 168.8L245.08 168.8L245.08 173.06L245.07 173.39L245.05 173.71L245.02 174.03L244.98 174.35L244.92 174.66L244.85 174.96L244.77 175.27L244.67 175.56L244.57 175.86L244.46 176.14L244.33 176.42L244.19 176.7L244.05 176.97L243.89 177.23L243.73 177.49L243.55 177.74L243.36 177.98L243.17 178.21L242.97 178.44L242.76 178.66L242.54 178.87L242.31 179.07L242.08 179.27L241.83 179.45L241.59 179.63L241.33 179.79L241.07 179.95L240.8 180.1L240.52 180.23L240.24 180.36L239.95 180.47L239.66 180.58L239.36 180.67L239.06 180.75L238.75 180.82L238.44 180.88L238.13 180.92L237.81 180.96L237.49 180.98L237.16 180.98L178.25 180.98L177.92 180.98L177.6 180.96L177.28 180.92L176.97 180.88L176.65 180.82L176.35 180.75L176.05 180.67L175.75 180.58L175.46 180.47L175.17 180.36L174.89 180.23L174.61 180.1L174.34 179.95L174.08 179.79L173.82 179.63L173.57 179.45L173.33 179.27L173.1 179.07L172.87 178.87L172.65 178.66L172.44 178.44L172.24 178.21L172.04 177.98L171.86 177.74L171.68 177.49L171.52 177.23L171.36 176.97L171.22 176.7L171.08 176.42L170.95 176.14L170.84 175.86L170.73 175.56L170.64 175.27L170.56 174.96L170.49 174.66L170.43 174.35L170.39 174.03L170.36 173.71L170.34 173.39L170.33 173.06L170.33 168.8L142.38 168.8L142.38 352.31L170.33 352.31L170.33 348.05L170.34 347.73L170.36 347.4L170.39 347.08L170.43 346.77L170.49 346.46L170.56 346.15L170.64 345.85L170.73 345.55L170.84 345.26L170.95 344.97L171.08 344.69L171.22 344.42L171.36 344.15L171.52 343.88L171.68 343.63L171.86 343.38L172.04 343.14L172.24 342.9L172.44 342.67L172.65 342.45L172.87 342.24L173.1 342.04L173.33 341.85L173.57 341.66L173.82 341.49L174.08 341.32L174.34 341.16L174.61 341.02L174.89 340.88L175.17 340.76L175.46 340.64L175.75 340.54L176.05 340.44L176.35 340.36L176.65 340.29L176.97 340.24L177.28 340.19L177.6 340.16L177.92 340.14L178.25 340.13L237.16 340.13L237.49 340.14L237.81 340.16L238.13 340.19L238.44 340.24L238.75 340.29L239.06 340.36L239.36 340.44L239.66 340.54L239.95 340.64L240.24 340.76L240.52 340.88L240.8 341.02L241.07 341.16L241.33 341.32L241.59 341.49L241.83 341.66L242.08 341.85L242.31 342.04L242.54 342.24L242.76 342.45L242.97 342.67L243.17 342.9L243.36 343.14L243.55 343.38L243.73 343.63L243.89 343.88L244.05 344.15L244.19 344.42L244.33 344.69L244.46 344.97L244.57 345.26L244.67 345.55L244.77 345.85L244.85 346.15L244.92 346.46L244.98 346.77L245.02 347.08L245.05 347.4L245.07 347.73L245.08 348.05L245.08 352.31L272.89 352.31L272.89 184.92L272.89 184.8L272.9 184.68L272.91 184.56L272.92 184.45L272.95 184.33L272.97 184.22L273 184.11L273.03 184L273.07 183.89L273.11 183.79L273.16 183.69L273.21 183.59L273.26 183.49L273.32 183.39L273.38 183.3L273.45 183.21L273.51 183.12L273.58 183.03L273.66 182.95L273.74 182.87L273.82 182.79L273.9 182.72L273.98 182.65L274.07 182.58L274.16 182.51L274.26 182.45L274.35 182.4L274.45 182.34L274.55 182.29L274.66 182.25L274.76 182.21L274.87 182.17L274.98 182.13L275.09 182.1L275.2 182.08L275.31 182.06L275.43 182.04L275.55 182.03L275.66 182.02L275.78 182.02L275.9 182.02L276.02 182.03L276.14 182.04L276.25 182.06L276.37 182.08L276.48 182.1L276.59 182.13L276.7 182.17L276.81 182.21L276.91 182.25L277.01 182.29L277.12 182.34L277.21 182.4L277.31 182.45L277.4 182.51L277.5 182.58L277.58 182.65L277.67 182.72L277.75 182.79L277.83 182.87L277.91 182.95L277.98 183.03L278.05 183.12L278.12 183.21L278.19 183.3L278.25 183.39L278.3 183.49L278.36 183.59L278.41 183.69L278.45 183.79L278.5 183.89L278.53 184L278.57 184.11L278.6 184.22L278.62 184.33L278.64 184.45L278.66 184.56L278.67 184.68L278.68 184.8L278.68 184.92L278.68 355.21L278.68 355.33L278.67 355.45L278.66 355.56L278.64 355.68L278.62 355.79L278.6 355.9L278.57 356.01L278.53 356.12L278.5 356.23L278.45 356.34L278.41 356.44L278.36 356.54L278.3 356.64L278.25 356.73L278.19 356.83L278.12 356.92L278.05 357.01L277.98 357.09L277.91 357.18L277.83 357.26L277.75 357.33L277.67 357.41L277.58 357.48L277.5 357.55L277.4 357.61L277.31 357.67L277.21 357.73L277.12 357.78L277.01 357.83L276.91 357.88L276.81 357.92L276.7 357.96L276.59 357.99L276.48 358.02L276.37 358.05L276.25 358.07L276.14 358.08L276.02 358.1L275.9 358.1L275.78 358.11L139.49 358.11L139.37 358.1L139.25 358.1L139.13 358.08L139.02 358.07L138.9 358.05L138.79 358.02L138.68 357.99L138.57 357.96L138.46 357.92L138.36 357.88L138.25 357.83L138.15 357.78L138.06 357.73L137.96 357.67L137.87 357.61L137.77 357.55L137.69 357.48L137.6 357.41L137.52 357.33L137.44 357.26L137.36 357.18L137.29 357.09L137.21 357.01L137.15 356.92L137.08 356.83L137.02 356.73L136.96 356.64L136.91 356.54L136.86 356.44L136.82 356.34L136.77 356.23L136.74 356.12L136.7 356.01L136.67 355.9L136.65 355.79L136.63 355.68L136.61 355.56L136.6 355.45L136.59 355.33L136.59 355.21L136.59 165.91L136.59 165.79L136.6 165.67L136.61 165.55L136.63 165.44L136.65 165.32L136.67 165.21L136.7 165.1L136.74 164.99L136.77 164.88L136.82 164.78L136.86 164.68L136.91 164.58L136.96 164.48L137.02 164.38L137.08 164.29L137.15 164.2L137.21 164.11L137.29 164.02L137.36 163.94L137.44 163.86L137.52 163.78L137.6 163.71L137.69 163.64L137.77 163.57L137.87 163.5L137.96 163.44L138.06 163.39L138.15 163.33L138.25 163.28L138.36 163.24L138.46 163.19L138.57 163.16L138.68 163.12L138.79 163.09L138.9 163.07L139.02 163.05L139.13 163.03L139.25 163.02L139.37 163.01L139.49 163.01L275.78 163.01L275.9 163.01ZM178.12 345.93L177.99 345.94L177.87 345.96L177.74 345.99L177.63 346.02L177.51 346.06L177.39 346.11L177.28 346.16L177.18 346.22L177.07 346.28L176.98 346.35L176.88 346.43L176.79 346.51L176.71 346.59L176.63 346.68L176.55 346.78L176.48 346.88L176.42 346.98L176.36 347.09L176.3 347.2L176.26 347.31L176.22 347.43L176.19 347.55L176.16 347.67L176.14 347.8L176.13 347.92L176.12 348.05L176.12 352.31L239.28 352.31L239.28 348.05L239.28 347.92L239.27 347.8L239.25 347.67L239.22 347.55L239.19 347.43L239.15 347.31L239.11 347.2L239.05 347.09L238.99 346.98L238.93 346.88L238.86 346.78L238.78 346.68L238.7 346.59L238.62 346.51L238.53 346.43L238.43 346.35L238.33 346.28L238.23 346.22L238.12 346.16L238.01 346.11L237.9 346.06L237.78 346.02L237.66 345.99L237.54 345.96L237.42 345.94L237.29 345.93L237.16 345.93L178.25 345.93L178.12 345.93ZM176.13 173.06L176.13 173.19L176.14 173.32L176.16 173.44L176.19 173.57L176.22 173.69L176.26 173.8L176.3 173.92L176.36 174.03L176.42 174.13L176.48 174.24L176.55 174.34L176.63 174.43L176.71 174.52L176.79 174.61L176.88 174.69L176.98 174.76L177.08 174.83L177.18 174.9L177.28 174.95L177.4 175.01L177.51 175.05L177.63 175.09L177.75 175.13L177.87 175.15L177.99 175.17L178.12 175.18L178.25 175.19L237.16 175.19L237.29 175.18L237.42 175.17L237.54 175.15L237.66 175.13L237.78 175.09L237.9 175.05L238.02 175.01L238.13 174.95L238.23 174.9L238.34 174.83L238.43 174.76L238.53 174.69L238.62 174.61L238.7 174.52L238.78 174.43L238.86 174.34L238.93 174.24L238.99 174.13L239.05 174.03L239.11 173.92L239.15 173.8L239.19 173.69L239.22 173.57L239.25 173.44L239.27 173.32L239.28 173.19L239.28 173.06L239.28 168.8L176.13 168.8L176.13 173.06Z" id="eG9oCyTdJ"></path><path d="M264.49 327.2L264.85 327.33L265.19 327.49L265.49 327.7L265.77 327.95L266.02 328.22L266.23 328.53L266.39 328.87L266.52 329.22L266.59 329.6L266.62 330L266.62 342.4L266.59 342.79L266.52 343.17L266.39 343.53L266.23 343.86L266.02 344.17L265.77 344.45L265.49 344.69L265.19 344.9L264.85 345.07L264.49 345.19L264.12 345.27L263.72 345.3L254.6 345.3L254.21 345.27L253.83 345.19L253.47 345.07L253.14 344.9L252.83 344.69L252.55 344.45L252.31 344.17L252.1 343.86L251.93 343.53L251.81 343.17L251.73 342.79L251.7 342.4L251.7 330L251.73 329.6L251.81 329.22L251.93 328.87L252.1 328.53L252.31 328.22L252.55 327.95L252.83 327.7L253.14 327.49L253.47 327.33L253.83 327.2L254.21 327.12L254.6 327.1L263.72 327.1L264.12 327.12L264.49 327.2ZM257.5 339.5L260.83 339.5L260.83 332.89L257.5 332.89L257.5 339.5Z" id="a5bfyACoT"></path><path d="M161.82 175.92L162.18 176.05L162.52 176.21L162.82 176.42L163.1 176.67L163.35 176.94L163.55 177.25L163.72 177.59L163.85 177.94L163.92 178.32L163.95 178.72L163.95 191.12L163.92 191.51L163.85 191.89L163.72 192.25L163.55 192.58L163.35 192.89L163.1 193.17L162.82 193.41L162.52 193.62L162.18 193.79L161.82 193.91L161.45 193.99L161.05 194.02L151.55 194.02L151.15 193.99L150.78 193.91L150.42 193.79L150.08 193.62L149.78 193.41L149.5 193.17L149.25 192.89L149.04 192.58L148.88 192.25L148.75 191.89L148.68 191.51L148.65 191.12L148.65 178.72L148.68 178.32L148.75 177.94L148.88 177.59L149.04 177.25L149.25 176.94L149.5 176.67L149.78 176.42L150.08 176.21L150.42 176.05L150.78 175.92L151.15 175.84L151.55 175.82L161.05 175.82L161.45 175.84L161.82 175.92ZM154.44 188.22L158.16 188.22L158.16 181.61L154.44 181.61L154.44 188.22Z" id="cjayTq75R"></path><path d="M264.49 251.56L264.85 251.69L265.19 251.85L265.49 252.06L265.77 252.31L266.02 252.58L266.23 252.89L266.39 253.23L266.52 253.58L266.59 253.96L266.62 254.35L266.62 266.76L266.59 267.15L266.52 267.53L266.39 267.89L266.23 268.22L266.02 268.53L265.77 268.81L265.49 269.05L265.19 269.26L264.85 269.43L264.49 269.55L264.12 269.63L263.72 269.66L254.6 269.66L254.21 269.63L253.83 269.55L253.47 269.43L253.14 269.26L252.83 269.05L252.55 268.81L252.31 268.53L252.1 268.22L251.93 267.89L251.81 267.53L251.73 267.15L251.71 266.76L251.71 254.35L251.73 253.96L251.81 253.58L251.93 253.23L252.1 252.89L252.31 252.58L252.55 252.31L252.83 252.06L253.14 251.85L253.47 251.69L253.83 251.56L254.21 251.48L254.6 251.46L263.72 251.46L264.12 251.48L264.49 251.56ZM257.5 263.86L260.83 263.86L260.83 257.25L257.5 257.25L257.5 263.86Z" id="cowLWA3M"></path><path d="M161.82 301.99L162.18 302.11L162.52 302.28L162.82 302.49L163.1 302.73L163.35 303.01L163.55 303.32L163.72 303.65L163.85 304.01L163.92 304.39L163.95 304.78L163.95 317.19L163.92 317.58L163.85 317.96L163.72 318.31L163.55 318.65L163.35 318.96L163.1 319.24L162.82 319.48L162.52 319.69L162.18 319.86L161.82 319.98L161.45 320.06L161.05 320.08L151.55 320.08L151.15 320.06L150.78 319.98L150.42 319.86L150.08 319.69L149.78 319.48L149.5 319.24L149.25 318.96L149.04 318.65L148.88 318.31L148.75 317.96L148.68 317.58L148.65 317.19L148.65 304.78L148.68 304.39L148.75 304.01L148.88 303.65L149.04 303.32L149.25 303.01L149.5 302.73L149.78 302.49L150.08 302.28L150.42 302.11L150.78 301.99L151.15 301.91L151.55 301.88L161.05 301.88L161.45 301.91L161.82 301.99ZM154.44 314.29L158.16 314.29L158.16 307.68L154.44 307.68L154.44 314.29Z" id="b1hb0LAm3Z"></path><path d="M161.82 251.56L162.18 251.69L162.52 251.85L162.82 252.06L163.1 252.31L163.35 252.58L163.55 252.89L163.72 253.23L163.85 253.58L163.92 253.96L163.95 254.35L163.95 266.76L163.92 267.15L163.85 267.53L163.72 267.89L163.55 268.22L163.35 268.53L163.1 268.81L162.82 269.05L162.52 269.26L162.18 269.43L161.82 269.55L161.45 269.63L161.05 269.66L151.55 269.66L151.15 269.63L150.78 269.55L150.42 269.43L150.08 269.26L149.78 269.05L149.5 268.81L149.25 268.53L149.04 268.22L148.88 267.89L148.75 267.53L148.68 267.15L148.65 266.76L148.65 254.35L148.68 253.96L148.75 253.58L148.88 253.23L149.04 252.89L149.25 252.58L149.5 252.31L149.78 252.06L150.08 251.85L150.42 251.69L150.78 251.56L151.15 251.48L151.55 251.46L161.05 251.46L161.45 251.48L161.82 251.56ZM154.44 263.86L158.16 263.86L158.16 257.25L154.44 257.25L154.44 263.86Z" id="aSQ0zUbU4"></path><path d="M161.82 327.2L162.18 327.33L162.52 327.49L162.82 327.7L163.1 327.95L163.35 328.22L163.55 328.53L163.72 328.87L163.85 329.22L163.92 329.6L163.95 330L163.95 342.4L163.92 342.79L163.85 343.17L163.72 343.53L163.55 343.86L163.35 344.17L163.1 344.45L162.82 344.69L162.52 344.9L162.18 345.07L161.82 345.19L161.45 345.27L161.05 345.3L151.55 345.3L151.15 345.27L150.78 345.19L150.42 345.07L150.08 344.9L149.78 344.69L149.5 344.45L149.25 344.17L149.04 343.86L148.88 343.53L148.75 343.17L148.68 342.79L148.65 342.4L148.65 330L148.68 329.6L148.75 329.22L148.88 328.87L149.04 328.53L149.25 328.22L149.5 327.95L149.78 327.7L150.08 327.49L150.42 327.33L150.78 327.2L151.15 327.12L151.55 327.1L161.05 327.1L161.45 327.12L161.82 327.2ZM154.44 339.5L158.16 339.5L158.16 332.89L154.44 332.89L154.44 339.5Z" id="a2n7Mhnjs0"></path><path d="M245.08 212.65C245.08 211.05 243.78 209.76 242.18 209.76C240.58 209.76 239.28 211.05 239.28 212.65C239.28 216.17 239.28 244.3 239.28 247.82C239.28 250.9 236.78 253.41 233.69 253.41C228.48 253.41 186.8 253.41 181.59 253.41C178.51 253.41 176 250.9 176 247.82C176 242.61 176 200.93 176 195.72C176 192.64 178.51 190.13 181.59 190.13C186.8 190.13 228.48 190.13 233.69 190.13C236.78 190.13 239.28 192.64 239.28 195.72C239.28 197.32 240.58 198.62 242.18 198.62C243.78 198.62 245.08 197.32 245.08 195.72C245.08 189.44 239.97 184.33 233.69 184.33C228.48 184.33 186.8 184.33 181.59 184.33C175.31 184.33 170.21 189.44 170.21 195.72C170.21 200.93 170.21 242.61 170.21 247.82C170.21 254.1 175.31 259.21 181.59 259.21C186.8 259.21 228.48 259.21 233.69 259.21C239.97 259.21 245.08 254.1 245.08 247.82C245.08 240.78 245.08 216.17 245.08 212.65Z" id="k1eYZ9ynjq"></path><path d="M245.08 290.31C245.08 288.71 243.78 287.41 242.18 287.41C240.58 287.41 239.28 288.71 239.28 290.31C239.28 293.78 239.28 321.6 239.28 325.08C239.28 328.17 236.78 330.68 233.69 330.68C228.48 330.68 186.8 330.68 181.59 330.68C178.51 330.68 176 328.17 176 325.08C176 319.87 176 278.2 176 272.99C176 269.9 178.51 267.39 181.59 267.39C186.8 267.39 228.48 267.39 233.69 267.39C236.78 267.39 239.28 269.9 239.28 272.99C239.28 274.59 240.58 275.88 242.18 275.88C243.78 275.88 245.08 274.59 245.08 272.99C245.08 266.71 239.97 261.6 233.69 261.6C228.48 261.6 186.8 261.6 181.59 261.6C175.31 261.6 170.21 266.71 170.21 272.99C170.21 278.2 170.21 319.87 170.21 325.08C170.21 331.36 175.31 336.47 181.59 336.47C186.8 336.47 228.48 336.47 233.69 336.47C239.97 336.47 245.08 331.36 245.08 325.08C245.08 318.13 245.08 293.78 245.08 290.31Z" id="a8HcPUvRjf"></path></defs><g><g><use xlink:href="#b7UqS9ArlC" opacity="1" fill="url(#gradienta1JQ81vjNy)"></use></g><g><use xlink:href="#a4u95F93ir" opacity="1" fill="#ffffff" fill-opacity="1"></use><g><use xlink:href="#a4u95F93ir" opacity="1" fill-opacity="0" stroke="#000000" stroke-width="1" stroke-opacity="0"></use></g></g><g><use xlink:href="#aGyi418kA" opacity="1" fill="#ffffff" fill-opacity="1"></use><g><use xlink:href="#aGyi418kA" opacity="1" fill-opacity="0" stroke="#000000" stroke-width="1" stroke-opacity="0"></use></g></g><g><use xlink:href="#cvmiyfFHw" opacity="1" fill="#ffffff" fill-opacity="1"></use><g><use xlink:href="#cvmiyfFHw" opacity="1" fill-opacity="0" stroke="#000000" stroke-width="1" stroke-opacity="0"></use></g></g><g><use xlink:href="#a4tvJAX35" opacity="1" fill="#ffffff" fill-opacity="1"></use><g><use xlink:href="#a4tvJAX35" opacity="1" fill-opacity="0" stroke="#000000" stroke-width="1" stroke-opacity="0"></use></g></g><g><use xlink:href="#c3jUY12UOL" opacity="1" fill="#ffffff" fill-opacity="1"></use><g><use xlink:href="#c3jUY12UOL" opacity="1" fill-opacity="0" stroke="#000000" stroke-width="1" stroke-opacity="0"></use></g></g><g><use xlink:href="#bpNAr21AQ" opacity="1" fill="#ffffff" fill-opacity="1"></use><g><use xlink:href="#bpNAr21AQ" opacity="1" fill-opacity="0" stroke="#000000" stroke-width="1" stroke-opacity="0"></use></g></g><g><use xlink:href="#df4S0XKBS" opacity="1" fill="#ffffff" fill-opacity="1"></use><g><use xlink:href="#df4S0XKBS" opacity="1" fill-opacity="0" stroke="#000000" stroke-width="1" stroke-opacity="0"></use></g></g><g><use xlink:href="#c5safZpLv" opacity="1" fill="#ffffff" fill-opacity="1"></use><g><use xlink:href="#c5safZpLv" opacity="1" fill-opacity="0" stroke="#000000" stroke-width="1" stroke-opacity="0"></use></g></g><g><use xlink:href="#eG9oCyTdJ" opacity="1" fill="#ffffff" fill-opacity="1"></use><g><use xlink:href="#eG9oCyTdJ" opacity="1" fill-opacity="0" stroke="#000000" stroke-width="1" stroke-opacity="0"></use></g></g><g><use xlink:href="#a5bfyACoT" opacity="1" fill="#ffffff" fill-opacity="1"></use><g><use xlink:href="#a5bfyACoT" opacity="1" fill-opacity="0" stroke="#000000" stroke-width="1" stroke-opacity="0"></use></g></g><g><use xlink:href="#cjayTq75R" opacity="1" fill="#ffffff" fill-opacity="1"></use><g><use xlink:href="#cjayTq75R" opacity="1" fill-opacity="0" stroke="#000000" stroke-width="1" stroke-opacity="0"></use></g></g><g><use xlink:href="#cowLWA3M" opacity="1" fill="#ffffff" fill-opacity="1"></use><g><use xlink:href="#cowLWA3M" opacity="1" fill-opacity="0" stroke="#000000" stroke-width="1" stroke-opacity="0"></use></g></g><g><use xlink:href="#b1hb0LAm3Z" opacity="1" fill="#ffffff" fill-opacity="1"></use><g><use xlink:href="#b1hb0LAm3Z" opacity="1" fill-opacity="0" stroke="#000000" stroke-width="1" stroke-opacity="0"></use></g></g><g><use xlink:href="#aSQ0zUbU4" opacity="1" fill="#ffffff" fill-opacity="1"></use><g><use xlink:href="#aSQ0zUbU4" opacity="1" fill-opacity="0" stroke="#000000" stroke-width="1" stroke-opacity="0"></use></g></g><g><use xlink:href="#a2n7Mhnjs0" opacity="1" fill="#ffffff" fill-opacity="1"></use><g><use xlink:href="#a2n7Mhnjs0" opacity="1" fill-opacity="0" stroke="#000000" stroke-width="1" stroke-opacity="0"></use></g></g><g><use xlink:href="#k1eYZ9ynjq" opacity="1" fill="#ffffff" fill-opacity="1"></use><g><use xlink:href="#k1eYZ9ynjq" opacity="1" fill-opacity="0" stroke="#000000" stroke-width="1" stroke-opacity="0"></use></g></g><g><use xlink:href="#a8HcPUvRjf" opacity="1" fill="#ffffff" fill-opacity="1"></use><g><use xlink:href="#a8HcPUvRjf" opacity="1" fill-opacity="0" stroke="#000000" stroke-width="1" stroke-opacity="0"></use></g></g></g></svg>